<?xml version="1.0" standalone="no"?>
<!DOCTYPE svg PUBLIC "-//W3C//DTD SVG 20010904//EN"
 "http://www.w3.org/TR/2001/REC-SVG-20010904/DTD/svg10.dtd">
<svg version="1.0" xmlns="http://www.w3.org/2000/svg"
 width="56.000000pt" height="56.000000pt" viewBox="0 0 56.000000 56.000000"
 preserveAspectRatio="xMidYMid meet">

<g transform="translate(0.000000,56.000000) scale(0.100000,-0.100000)"
fill="#000000" stroke="none">
<path d="M192 542 c-161 -58 -233 -233 -159 -384 83 -169 307 -205 440 -71
133 132 98 357 -67 438 -72 35 -146 41 -214 17z m153 -23 c108 -30 179 -126
179 -239 -1 -188 -198 -305 -362 -215 -147 80 -175 273 -57 390 65 65 152 88
240 64z"/>
<path d="M163 347 c-72 -36 -83 -45 -83 -68 0 -23 9 -31 80 -63 43 -20 82 -36
85 -36 3 0 5 11 5 24 0 20 -10 28 -55 47 -30 12 -55 26 -55 30 0 3 25 17 55
30 47 21 55 28 55 52 0 15 -1 27 -2 26 -2 0 -40 -19 -85 -42z"/>
<path d="M310 356 c0 -19 10 -28 55 -46 30 -12 55 -25 55 -29 0 -3 -25 -17
-55 -30 -46 -19 -55 -28 -55 -48 0 -16 5 -23 13 -20 6 2 45 19 85 37 64 29 72
36 72 60 0 24 -9 31 -78 63 -43 21 -81 37 -85 37 -4 0 -7 -11 -7 -24z"/>
</g>
</svg>
